<svg xmlns="http://www.w3.org/2000/svg" width="102" height="80" viewBox="0" version="1.1"><title>GPMD New Logo 2014</title><description>Created with Sketch (http://www.bohemiancoding.com/sketch)</description><g stroke="none" stroke-width="1" fill="none" fill-rule="evenodd"><rect x="0" y="0" width="102" height="80"/><path d="M51.1 80.2C52.2 72.7 52.1 63.6 56.7 57.2 67.9 41.8 97.2 48.6 101.7 26.3 102.9 20.8 100.4 15.3 96.5 11.4 88 3 74.6 1.8 63.3 0.7 55-0.2 47-0.2 38.7 0.6 27.4 1.8 14 3 5.5 11.4 1.6 15.3-0.9 20.8 0.3 26.3 4.8 48.5 34.1 41.8 45.3 57.2 49.9 63.6 49.8 72.6 50.9 80.2L51.1 80.2ZM14.8 24C14.8 29.1 18.9 33.2 24.1 33.2 27.9 33.2 30.6 31.5 30.6 31.5 30.7 31.4 30.8 31.2 30.8 31.1L30.8 24.2C30.8 23.9 30.6 23.7 30.3 23.7L25.1 23.7C24.8 23.7 24.6 23.9 24.6 24.2L24.6 26.7C24.6 27 24.8 27.2 25.1 27.2L26.7 27.2 26.7 28.7C25.9 29 25.2 29.1 24.4 29.1 21.6 29.1 19.2 26.8 19.2 24 19.2 21.1 21.5 18.8 24.4 18.8 25.7 18.8 26.8 19.1 27.8 20 28 20.2 28.3 20.2 28.5 20L30.6 17.8C30.8 17.6 30.7 17.3 30.5 17.1 28.7 15.6 26.3 14.7 24.1 14.7 18.9 14.7 14.8 18.8 14.8 24ZM34.4 32.5C34.4 32.7 34.6 32.9 34.9 32.9L38 32.9C38.2 32.9 38.5 32.7 38.5 32.5L38.5 26.4 41.2 26.4C44.4 26.4 47 23.8 47 20.6 47 17.5 44.4 14.9 41.2 14.9L34.9 14.9C34.6 14.9 34.4 15.2 34.4 15.4L34.4 32.5ZM38.5 22.6L38.5 18.7 41 18.7C42.1 18.7 43 19.5 43 20.6 43 21.8 42.1 22.6 41 22.6L38.5 22.6ZM47.7 32.4C47.7 32.7 47.9 32.9 48.2 32.9L51.3 32.9C51.6 32.9 51.8 32.7 51.8 32.5L52.9 24.6 53 24.6 57.4 32.9C57.5 33.1 57.7 33.2 57.9 33.2L58.3 33.2C58.5 33.2 58.7 33.1 58.8 32.9L63.2 24.6 63.2 24.6 64.4 32.5C64.4 32.7 64.6 32.9 64.9 32.9L68 32.9C68.3 32.9 68.5 32.7 68.5 32.4L65.5 15.1C65.5 14.8 65.2 14.7 65 14.7L64.6 14.7C64.5 14.7 64.3 14.8 64.2 14.9L58.1 26 58.1 26 52 14.9C51.9 14.8 51.7 14.7 51.6 14.7L51.1 14.7C50.9 14.7 50.7 14.8 50.7 15.1L47.7 32.4ZM71.1 32.5C71.1 32.7 71.4 32.9 71.6 32.9L78 32.9C83 32.9 87.2 28.9 87.2 23.9 87.2 19 83 14.9 78 14.9L71.6 14.9C71.4 14.9 71.1 15.2 71.1 15.4L71.1 32.5ZM75.2 29.1L75.2 18.7 77.7 18.7C80.7 18.7 82.8 21 82.8 23.9 82.8 26.8 80.7 29.1 77.7 29.1L75.2 29.1Z" fill="#FFCC00"/></g></svg>